<svg width="119" height="73" viewBox="0 0 119 73" fill="none" xmlns="http://www.w3.org/2000/svg">
<path d="M14.788 21.0025C14.9919 20.9016 15.2137 20.8418 15.4407 20.8266C15.6678 20.8114 15.8956 20.8411 16.1111 20.914C16.3267 20.9869 16.5258 21.1015 16.697 21.2513C16.8682 21.4011 17.0083 21.5832 17.1091 21.7872L18.4793 24.5657L21.2734 21.5689C21.5865 21.233 22.0203 21.0351 22.4793 21.0189C22.9383 21.0026 23.3849 21.1693 23.721 21.4823C24.4191 22.1371 24.4572 23.2336 23.8059 23.9334L20.1197 27.8881L21.5107 30.7047L23.8163 28.6035C23.9846 28.4504 24.1814 28.3319 24.3956 28.2548C24.6097 28.1778 24.8369 28.1436 25.0642 28.1544C25.2915 28.1652 25.5144 28.2207 25.7203 28.3176C25.9261 28.4146 26.1109 28.5512 26.2639 28.7196C26.4176 28.8879 26.5365 29.085 26.6139 29.2994C26.6913 29.5139 26.7255 29.7415 26.7148 29.9692C26.704 30.1969 26.6483 30.4203 26.5511 30.6264C26.4538 30.8326 26.3168 31.0175 26.1479 31.1707L23.1078 33.9387L24.9371 37.644C25.141 38.0558 25.173 38.5319 25.026 38.9673C24.8791 39.4028 24.5651 39.762 24.1532 39.966C23.7414 40.17 23.2653 40.202 22.8299 40.055C22.3944 39.908 22.0352 39.594 21.8312 39.1822L19.9344 35.3384L16.5323 36.0278C16.0814 36.119 15.6127 36.0273 15.2294 35.773C14.8461 35.5186 14.5795 35.1224 14.4883 34.6715C14.3971 34.2206 14.4888 33.7519 14.7431 33.3686C14.9975 32.9852 15.3937 32.7186 15.8446 32.6275L18.3459 32.1216L16.9688 29.3328L11.7029 30.1261C11.2481 30.1943 10.7848 30.0791 10.4149 29.8057C10.0451 29.5324 9.79896 29.1233 9.73074 28.6685C9.66252 28.2136 9.77777 27.7503 10.0511 27.3805C10.3245 27.0107 10.7336 26.7645 11.1884 26.6963L15.3561 26.0675L14.0033 23.3254C13.9021 23.1214 13.8421 22.8994 13.8268 22.6722C13.8114 22.445 13.841 22.217 13.9139 22.0012C13.9868 21.7855 14.1015 21.5862 14.2515 21.4149C14.4015 21.2435 14.5838 21.1034 14.788 21.0025ZM53.9362 36.3552C54.1625 36.3317 54.3913 36.353 54.6094 36.418C54.8275 36.4829 55.0307 36.5902 55.2073 36.7337C55.384 36.8772 55.5306 37.0541 55.6388 37.2542C55.7471 37.4544 55.8148 37.674 55.8382 37.9003C56.1846 41.2037 54.7295 44.3269 51.9805 46.1873C51.5991 46.4237 51.141 46.5032 50.7023 46.4091C50.2635 46.315 49.8783 46.0547 49.6273 45.6827C49.3764 45.3108 49.2792 44.8561 49.3562 44.4141C49.4332 43.972 49.6785 43.577 50.0404 43.3118C50.8599 42.7684 51.5133 42.0091 51.9284 41.1177C52.3435 40.2263 52.5042 39.2376 52.3928 38.2606C52.3688 38.0341 52.3897 37.8051 52.4543 37.5867C52.5189 37.3683 52.626 37.1648 52.7693 36.9878C52.9127 36.8108 53.0895 36.6639 53.2898 36.5553C53.49 36.4468 53.7096 36.3788 53.9362 36.3552Z" fill="#6F9D39"/>
<path fill-rule="evenodd" clip-rule="evenodd" d="M7.85041 72.2987C12.9847 72.0389 16.1911 70.6115 18.1831 68.5017C18.8795 69.496 20.0886 70.078 21.3999 69.8736C28.2837 68.7996 43.6243 65.9726 60.8651 60.0103C61.5129 59.8053 62.0786 59.3993 62.4801 58.8511C62.8817 58.3029 63.0981 57.6411 63.0981 56.9616C63.0981 56.2821 62.8817 55.6203 62.4801 55.0721C62.0786 54.5239 61.5129 54.1179 60.8651 53.9129C58.91 53.2385 56.9832 52.6028 55.0846 52.0057C58.5231 50.1921 61.1613 47.1486 62.1937 43.2857C64.5235 34.5813 58.4088 27.008 50.4735 29.4175C49.914 25.423 51.2097 21.7438 54.61 19.7777L52.8778 16.774C48.672 19.2044 46.9051 23.3634 46.8895 27.623C43.9083 25.3416 40.2949 25.255 37.2237 26.8608C37.2107 26.3464 37.1375 25.8354 37.0054 25.3382C36.4771 23.3617 35.0654 21.9499 33.1253 21.1375C32.7269 19.3083 31.8088 17.0876 30.0748 15.4316C28.0654 13.5157 25.1796 12.563 21.4189 13.488C20.4943 12.224 19.2527 11.2261 17.8193 10.5952C15.5068 9.59918 12.6019 9.61997 9.32453 11.5064C5.89993 13.1087 4.24912 15.4662 3.79355 17.9381C3.48521 19.6184 3.7537 21.212 4.19542 22.4696C1.28875 25.0177 0.41398 27.9278 0.831445 30.6699C1.19348 33.0413 2.48572 35.068 3.7537 36.4434C3.30679 38.4996 3.65497 40.4639 4.96972 42.0316C5.30924 42.4346 5.6961 42.7943 6.13031 43.1108C6.12255 43.1809 6.11907 43.2515 6.11992 43.3221C6.15976 46.5406 6.34338 49.0852 7.00335 51.0634C4.87618 51.8758 2.87027 53.5266 1.04104 56.0175C0.839435 56.2913 0.730682 56.6225 0.730682 56.9625C0.730682 57.3025 0.839435 57.6336 1.04104 57.9074C2.85468 60.3775 4.84327 62.0232 6.95139 62.8408C6.39015 64.7601 6.17189 67.2856 6.12165 70.5977C6.11626 70.8249 6.15751 71.0508 6.24284 71.2614C6.32817 71.4721 6.45578 71.663 6.61779 71.8224C6.77979 71.9818 6.97275 72.1063 7.18476 72.1883C7.39676 72.2702 7.62331 72.3078 7.85041 72.2987ZM21.3808 56.9616C21.3808 58.7458 21.3115 60.53 21.0274 62.2189V66.4213C22.7077 66.1562 24.8851 65.789 27.4609 65.2971V58.8844H30.9253V64.6094C36.8228 63.3907 42.672 61.9496 48.4606 60.2892V56.9633H51.9251V59.2672C54.2514 58.557 56.6367 57.7913 59.0618 56.9633C55.7387 55.8266 52.3887 54.7697 49.0149 53.7934L48.8244 53.8107L43.1202 52.1685C42.2217 51.9341 41.3383 51.7089 40.4699 51.493V58.8844H37.0054V50.6546C31.7195 49.4099 26.39 48.3583 21.0274 47.5019V51.7043C21.3098 53.3932 21.3808 55.1774 21.3808 56.9616ZM17.563 61.9158V52.0074C17.3205 50.691 16.9307 49.5771 16.3348 48.6591C15.4254 47.2577 13.6741 45.8009 9.6346 45.2639C9.72294 47.3824 9.92215 48.8669 10.2876 49.9634L11.3408 53.1195L8.2367 54.3044C7.15752 54.7166 5.96229 55.5377 4.71855 56.9616C5.94843 58.3716 7.135 59.191 8.20378 59.6067L11.1711 60.7604L10.2755 63.8177C9.9464 64.942 9.742 66.4819 9.64326 68.6576C13.6776 68.1206 15.4254 66.6655 16.3348 65.2659C16.9307 64.3478 17.3205 63.234 17.5647 61.9175M19.2051 44.474C17.2217 42.9358 14.8555 41.7371 11.9627 41.4859C9.61728 41.2815 8.26788 40.5679 7.62349 39.8005C7.05186 39.1197 6.78336 38.0908 7.33421 36.4971L7.71183 35.4058L6.85265 34.6367C5.75269 33.6528 4.53494 31.9639 4.25778 30.1485C4.01181 28.5272 4.46045 26.4832 7.33248 24.4028L8.57101 23.5072L7.83655 22.1647C7.36885 21.3107 6.95312 19.9302 7.20256 18.5686C7.43121 17.3284 8.26095 15.8179 10.8506 14.6226L10.9268 14.588L10.9979 14.5464C13.4645 13.1087 15.2418 13.2611 16.4544 13.7842C17.7674 14.3472 18.6837 15.4645 19.0943 16.296L19.7716 17.6644L21.2128 17.1673C24.5646 16.0067 26.4978 16.8104 27.6861 17.945C29.0147 19.213 29.6989 21.1808 29.8756 22.6445L30.0125 23.7878L31.1211 24.1048C32.7424 24.5673 33.4319 25.378 33.6623 26.2372C33.9221 27.2055 33.7315 28.7194 32.5536 30.7548C31.6673 32.2968 31.1116 34.0064 30.9219 35.7748C30.3728 38.4996 30.6967 41.2452 31.7239 43.7465C31.8763 44.3614 32.0357 44.9556 32.1864 45.5203L32.247 45.742C32.2771 45.8506 32.303 45.958 32.325 46.0642C27.7311 45.1011 23.9757 44.4532 21.4033 44.0513C20.6431 43.9307 19.8665 44.0802 19.2051 44.474ZM49.3285 50.277C45.8688 49.2856 42.3873 48.3719 38.8866 47.5366C37.2005 46.2598 35.8699 44.572 35.022 42.6344C34.5024 40.476 34.1438 38.3714 34.3378 36.3551C34.3725 36.1853 34.4129 36.0156 34.4591 35.8458C35.417 32.267 37.7382 30.1416 39.9502 29.4764C42.0081 28.858 44.3934 29.35 46.3248 31.9778L47.9652 34.2123L50.5047 33.1002C53.4893 31.7907 55.7983 32.5581 57.2724 34.124C58.8574 35.8094 59.805 38.8096 58.8488 42.3901C57.7453 46.5094 53.9968 49.6135 49.3285 50.277Z" fill="#6F9D39"/>
<path d="M71.5883 68.1965C69.8518 68.1965 68.4031 67.616 67.2421 66.455C66.0811 65.294 65.4994 63.8453 65.4969 62.1088V21.5117C65.4969 19.7778 66.0786 18.3303 67.2421 17.1693C68.4056 16.0083 69.8544 15.4265 71.5883 15.424H78.69V13.5393C78.69 9.87539 79.9728 6.76056 82.5386 4.19481C85.1043 1.62906 88.2192 0.346191 91.8831 0.346191C95.547 0.346191 98.6618 1.62906 101.228 4.19481C103.793 6.76056 105.076 9.87539 105.076 13.5393V15.424H112.182C113.916 15.424 115.363 16.0058 116.524 17.1693C117.685 18.3328 118.267 19.7815 118.269 21.5155V62.1088C118.269 63.8428 117.688 65.2915 116.524 66.455C115.361 67.6185 113.913 68.199 112.182 68.1965H71.5883ZM71.5883 64.427H112.182C112.76 64.427 113.291 64.1858 113.776 63.7033C114.261 63.2208 114.502 62.6881 114.5 62.105V21.5155C114.5 20.935 114.259 20.4022 113.776 19.9172C113.294 19.4322 112.761 19.191 112.178 19.1935H105.076V28.6171C105.076 29.1549 104.897 29.6035 104.537 29.9628C104.178 30.3222 103.729 30.5019 103.191 30.5019C102.654 30.5019 102.205 30.3222 101.846 29.9628C101.486 29.6035 101.307 29.1549 101.307 28.6171V19.1935H82.4594V28.6171C82.4594 29.1549 82.2798 29.6035 81.9204 29.9628C81.561 30.3222 81.1125 30.5019 80.5747 30.5019C80.0369 30.5019 79.5884 30.3222 79.229 29.9628C78.8696 29.6035 78.69 29.1549 78.69 28.6171V19.1935H71.5883C71.0078 19.1935 70.4751 19.4347 69.9901 19.9172C69.505 20.3997 69.2638 20.9325 69.2663 21.5155V62.1088C69.2663 62.6868 69.5076 63.2183 69.9901 63.7033C70.4725 64.1883 71.004 64.4295 71.5845 64.427M82.4594 15.424H101.307V13.5393C101.307 10.8856 100.4 8.65157 98.5852 6.8372C96.7708 5.02284 94.5368 4.11565 91.8831 4.11565C89.2294 4.11565 86.9953 5.02284 85.181 6.8372C83.3666 8.65157 82.4594 10.8856 82.4594 13.5393V15.424Z" fill="#6F9D39"/>
</svg>
