<svg width="93" height="100" viewBox="0 0 93 100" fill="none" xmlns="http://www.w3.org/2000/svg">
<g filter="url(#filter0_di_175_33)">
<path d="M29.144 95.7014C23.9414 95.7014 18.7387 95.7014 13.536 95.7014C9.9823 95.7014 7.08246 94.3652 5.06394 91.4085C4.52377 90.6409 4.12577 89.7596 5.09238 89.0489C5.91685 88.4234 6.74131 88.8783 7.22462 89.5322C9.78331 93.1712 13.536 92.7163 17.2035 92.631C17.8858 92.631 18.426 92.5742 18.4544 91.6644C18.4544 90.7546 18.1132 90.4703 17.2319 90.3282C10.0107 89.1057 5.88841 81.0316 9.0157 74.3506C10.3235 71.5361 12.8253 70.6263 15.6398 70.6263C19.9328 70.6263 24.2541 70.8538 28.547 71.0243C31.1057 71.1381 32.4703 72.4743 32.5272 75.0898C32.584 77.8759 32.3282 80.6052 31.6459 83.3345C30.6224 87.4284 28.1205 89.589 23.9129 89.8449C22.861 89.9017 21.6101 89.7596 21.8091 91.4938C21.9797 93.1427 23.1737 92.5742 24.0551 92.5742C27.6372 92.6026 31.2478 92.5457 34.83 92.6026C36.2231 92.631 36.9054 92.4036 36.9054 90.7262C36.8201 82.7374 36.8485 74.7486 36.8485 66.7599C36.8485 65.7932 36.5926 65.0541 35.8535 64.4002C34.7447 63.3767 33.636 62.2964 32.6409 61.1592C30.7077 58.9416 28.945 57.9182 25.5619 58.9132C19.3073 60.7327 12.5979 55.4163 11.5744 48.5079C11.3754 47.257 10.9489 46.4041 10.0392 45.5512C3.41501 39.2966 3.7846 31.848 11.0911 26.1336C12.342 25.167 12.8537 24.1435 13.1949 22.6652C14.4742 17.4057 17.6868 13.7666 22.9747 12.3167C24.5952 11.8618 25.704 11.1511 26.7843 9.81488C32.1291 3.13387 41.3404 2.56527 47.6234 8.45025C48.8459 9.61587 50.1253 10.1276 51.8595 10.3551C57.9435 11.2364 63.004 13.8235 65.0509 20.1349C65.4774 21.4995 66.0744 21.6133 67.2684 21.6986C71.0212 22.0397 74.8023 21.6701 78.4982 22.6367C81.8814 23.5181 84.7528 24.9396 84.9518 28.9766C85.0087 29.7726 85.5772 29.7158 85.9184 30.0001C88.2212 31.8196 89.1594 34.6341 87.9938 37.3918C86.1174 41.7985 82.9617 44.7552 78.0149 45.21C76.565 45.3522 76.2807 45.7218 76.9062 47.0011C79.2943 52.1469 80.2893 57.5486 79.7776 63.1777C78.811 73.3271 81.3981 82.8227 84.8097 92.2046C85.9753 95.3887 85.6625 95.275 82.3363 95.7867C76.8209 96.6681 73.9779 94.479 72.8407 89.3047C72.727 88.793 72.4427 88.3097 72.1299 87.8832C71.8456 87.4852 71.9309 86.7176 71.1633 86.7745C70.5095 86.8313 70.3673 87.4284 70.1967 87.9117C69.884 88.8498 69.5712 89.7596 69.2869 90.6978C67.7517 95.474 68.9174 95.3887 62.9187 95.3887C60.758 95.3887 58.5973 95.4456 56.4651 95.5024C55.3848 95.5309 54.3044 95.3603 54.3329 94.0809C54.3329 93.1428 55.1573 92.4036 56.2092 92.5742C58.1993 92.8869 58.7111 91.835 58.6542 90.186C58.3699 82.3394 62.2648 75.2888 63.004 67.6128C63.203 65.6227 63.4873 64.5992 60.8717 64.3149C57.716 63.9737 54.5887 63.0071 51.5183 62.0974C49.9262 61.6141 49.4145 62.0974 49.1871 63.5757C48.4763 68.0961 45.548 70.8253 41.6816 72.7017C40.516 73.2703 39.9189 73.782 39.9474 75.2035C40.0895 80.3209 40.0895 85.4383 40.0327 90.5556C40.0042 92.233 40.5444 92.8016 42.1933 92.6026C43.4442 92.4604 44.6951 92.631 45.9461 92.631C46.9695 92.631 48.0499 92.7163 48.0214 94.1094C47.993 95.4456 46.8842 95.5593 45.9176 95.673C45.1216 95.7583 44.2971 95.673 43.5011 95.673C38.668 95.673 33.8918 95.673 29.144 95.7014C29.144 95.673 29.144 95.673 29.144 95.7014ZM39.4925 43.1631C39.8336 43.1915 40.1464 43.2484 40.4875 43.2768C42.5913 41.4573 44.4677 39.4103 46.1451 37.1928C46.8274 36.2831 47.6519 35.1743 48.9881 36.2831C50.239 37.3065 49.187 38.2732 48.6469 39.0976C46.6284 42.1965 43.8991 44.6699 41.2551 47.2286C40.3738 48.0814 39.8336 48.9343 39.8621 50.2421C39.9473 56.0702 39.9758 61.8984 39.8905 67.7549C39.8621 69.8018 40.6865 69.5176 41.9375 68.8068C45.9176 66.5609 47.7371 59.1122 45.0932 55.2458C44.553 54.4497 43.9844 53.7958 44.553 52.8861C45.15 51.9195 46.0598 52.2322 46.9695 52.4312C49.5282 52.9998 52.1438 52.9714 54.7309 52.7155C59.0806 52.2891 62.7481 48.2236 62.0373 44.3287C61.355 40.4054 59.7061 36.7379 58.6258 32.8999C57.3748 28.4649 57.119 26.6453 60.6443 23.7171C62.2364 22.4093 62.3785 21.1584 61.4972 19.5379C59.4502 15.7567 56.0955 13.6813 52.0016 13.4823C49.2724 13.3402 47.396 12.4873 45.5196 10.5541C40.9708 5.89156 32.8968 6.28958 29.4567 11.407C28.0068 13.5676 26.3863 14.4205 24.0551 15.0744C20.3592 16.1263 17.2888 18.6281 16.4643 22.4093C15.7536 25.6219 14.2752 27.7257 11.9155 29.7726C7.16776 33.8665 7.56576 39.7799 12.6831 43.3905C13.9625 44.3003 14.6164 45.1816 14.7017 46.8305C14.986 52.2038 20.217 58.7142 27.7794 54.933C29.2293 54.1939 30.2528 54.4213 31.3616 55.5016C32.9821 57.0937 34.7163 58.6005 36.7632 60.4769C36.7632 56.5535 36.7348 53.2557 36.7917 49.9578C36.8201 48.8775 36.1093 48.3942 35.4839 47.7687C32.6693 44.9826 29.9116 42.1965 27.1255 39.3819C26.2442 38.5006 25.4481 37.4203 26.6138 36.3968C27.8078 35.3449 28.6038 36.4536 29.4567 37.3065C31.7311 39.5241 34.1192 41.6279 36.5642 43.8738C36.5642 40.2632 36.5642 36.6242 36.5642 32.9852C36.5642 31.8764 36.7064 30.654 38.1278 30.5971C39.6915 30.5687 39.5493 31.848 39.5493 32.9568C39.4925 36.4252 39.4925 39.7799 39.4925 43.1631ZM70.9359 39.5241C73.2387 37.6193 73.6083 37.6761 75.7121 40.3201C77.7306 42.8219 78.8394 43.0494 81.3981 41.173C82.9902 40.0074 84.4685 38.5859 85.0655 36.6527C85.6341 34.8047 85.9753 32.644 83.7577 31.7627C82.0235 31.052 80.7726 30.7677 81.8814 28.5217C82.251 27.7541 81.3128 26.8728 80.4599 26.4748C78.8394 25.7072 77.162 25.0817 75.3425 25.764C74.8308 25.963 74.4612 26.3895 73.722 25.7925C71.0496 23.6602 63.6294 24.371 61.3835 26.8159C59.4502 28.9482 60.1326 31.4784 62.9471 32.6156C62.606 33.9802 60.9002 35.0322 61.9521 36.7664C62.805 38.2163 64.3402 38.2447 65.9891 38.4153C63.7147 40.5191 63.6863 41.9406 65.4205 44.0728C66.9841 45.9776 69.0027 46.66 71.3339 46.5747C74.6318 46.4894 75.2288 45.3522 73.6651 42.3671C73.0397 41.0877 72.1015 40.2064 70.9359 39.5241ZM76.6219 64.6276C76.6503 64.6276 76.6787 64.6276 76.7072 64.6276C76.7072 64.1727 76.7072 63.7179 76.7072 63.2914C76.7356 59.0838 76.8777 54.9046 75.2004 50.896C74.1769 48.451 72.1584 49.7304 70.5947 49.3608C68.9174 48.9628 68.9458 50.3843 68.7468 51.3225C68.2066 53.938 68.036 56.6673 67.2684 59.1975C66.5861 61.5003 67.0978 62.3817 69.4291 62.4101C70.3957 62.4101 71.6751 62.6091 71.6182 63.8032C71.5614 64.8835 70.3389 65.0825 69.3438 65.0825C68.8037 65.0825 68.2635 65.0825 67.7233 65.0256C66.6145 64.8835 66.046 65.3952 65.9322 66.4756C65.7332 68.4372 65.5058 70.3704 65.2783 72.3321C65.1362 73.5262 65.5342 74.1516 66.8989 74.1516C69.685 74.1232 72.4711 74.1232 75.2288 74.2653C76.9062 74.3506 77.162 73.5546 77.0483 72.1331C76.7924 69.6313 76.7356 67.1294 76.6219 64.6276ZM21.4964 74.18C19.2504 74.2938 17.0613 73.6967 14.787 74.0095C12.7116 74.2938 11.7165 75.431 11.5459 77.3073C11.3469 79.3543 11.6028 81.4297 12.4273 83.3345C14.2468 87.3999 24.6805 88.4234 27.4951 84.8412C27.7225 84.5569 27.95 84.2442 28.0352 83.9031C28.547 81.913 29.2009 79.9797 29.2862 77.9044C29.4283 74.4359 29.2009 74.2085 25.8177 74.18C24.3678 74.18 22.9463 74.18 21.4964 74.18ZM61.4403 89.0489C61.4119 89.3047 61.3266 89.6174 61.4119 89.8449C61.6962 90.7546 60.3884 92.4604 62.4638 92.4889C64.1127 92.5173 66.1597 93.5123 66.7283 90.4704C67.3537 87.1725 68.7468 84.0452 69.6281 80.8042C70.7369 76.824 70.68 76.7956 66.444 76.8525C65.0793 76.8809 63.5441 76.426 63.1745 78.5582C62.5775 82.0551 61.4972 85.4667 61.4403 89.0489ZM79.4933 92.6026C81.1706 92.8016 81.853 92.5173 81.1706 90.5841C79.7776 86.746 78.4698 82.8796 77.7591 78.8425C77.56 77.7338 76.9346 77.4211 75.9111 77.3926C73.9495 77.3073 72.0731 81.0316 73.0397 83.306C74.1485 85.8363 75.4278 88.2813 76.5081 90.8115C77.1052 92.233 77.9865 92.9153 79.4933 92.6026ZM52.6271 56.3545C51.9163 56.3545 51.2056 56.383 50.4664 56.3545C49.6704 56.3261 49.0165 56.3545 49.1586 57.4633C49.2724 58.2593 49.1871 59.1407 50.3527 59.1975C54.3044 59.3681 57.9435 61.1023 61.8383 61.6141C63.2883 61.8131 63.8284 61.5856 63.8 60.1357C63.8 59.624 64.0843 59.1122 64.198 58.5721C64.5961 56.9231 64.3402 56.0418 62.2648 55.8997C59.0238 55.6722 55.8681 56.4398 52.6271 56.3545ZM61.4687 53.3125C63.0324 52.9145 64.5961 53.9096 65.1931 52.6018C65.847 51.2087 65.847 49.4745 66.0744 47.9109C66.1028 47.7687 65.7617 47.456 65.5342 47.4276C65.1646 47.3707 64.8803 47.5981 64.7382 47.9677C64.1411 49.8157 62.9187 51.3509 61.4687 53.3125Z" fill="#7BAE3F"/>
</g>
<defs>
<filter id="filter0_di_175_33" x="0.735652" y="0.623225" width="91.5287" height="99.1227" filterUnits="userSpaceOnUse" color-interpolation-filters="sRGB">
<feFlood flood-opacity="0" result="BackgroundImageFix"/>
<feColorMatrix in="SourceAlpha" type="matrix" values="0 0 0 0 0 0 0 0 0 0 0 0 0 0 0 0 0 0 127 0" result="hardAlpha"/>
<feOffset/>
<feGaussianBlur stdDeviation="1.88462"/>
<feColorMatrix type="matrix" values="0 0 0 0 0 0 0 0 0 0.545098 0 0 0 0 0.270588 0 0 0 0.2 0"/>
<feBlend mode="normal" in2="BackgroundImageFix" result="effect1_dropShadow_175_33"/>
<feBlend mode="normal" in="SourceGraphic" in2="effect1_dropShadow_175_33" result="shape"/>
<feColorMatrix in="SourceAlpha" type="matrix" values="0 0 0 0 0 0 0 0 0 0 0 0 0 0 0 0 0 0 127 0" result="hardAlpha"/>
<feOffset dy="3.01538"/>
<feGaussianBlur stdDeviation="1.50769"/>
<feComposite in2="hardAlpha" operator="arithmetic" k2="-1" k3="1"/>
<feColorMatrix type="matrix" values="0 0 0 0 0 0 0 0 0 0 0 0 0 0 0 0 0 0 0.25 0"/>
<feBlend mode="normal" in2="shape" result="effect2_innerShadow_175_33"/>
</filter>
</defs>
</svg>
