<svg width="276" height="73" viewBox="0 0 276 73" fill="none" xmlns="http://www.w3.org/2000/svg">
<path d="M16.5853 26.5882C16.1874 25.8552 15.6115 25.3003 14.8576 24.9234C14.1247 24.5255 13.2556 24.3266 12.2505 24.3266C10.5124 24.3266 9.1198 24.9024 8.07275 26.0542C7.0257 27.185 6.50218 28.7032 6.50218 30.6089C6.50218 32.6401 7.04664 34.2316 8.13558 35.3834C9.24545 36.5142 10.7637 37.0796 12.6902 37.0796C14.0095 37.0796 15.1194 36.7446 16.0199 36.0745C16.9413 35.4043 17.6114 34.4411 18.0302 33.1846H11.2139V29.2267H22.899V34.2212C22.5011 35.5614 21.8205 36.8074 20.8572 37.9591C19.9149 39.1109 18.7108 40.0428 17.2449 40.7548C15.779 41.4668 14.1247 41.8228 12.2819 41.8228C10.104 41.8228 8.15652 41.3516 6.43936 40.4092C4.74314 39.446 3.41338 38.1162 2.4501 36.42C1.50775 34.7238 1.03658 32.7867 1.03658 30.6089C1.03658 28.431 1.50775 26.4939 2.4501 24.7977C3.41338 23.0806 4.74314 21.7508 6.43936 20.8085C8.13558 19.8452 10.0726 19.3635 12.2505 19.3635C14.889 19.3635 17.1088 20.0022 18.9097 21.2796C20.7316 22.557 21.9357 24.3266 22.522 26.5882H16.5853ZM37.1195 41.6657L32.5335 33.3417H31.2456V41.6657H25.8742V19.6148H34.8893C36.6274 19.6148 38.1038 19.9185 39.3183 20.5258C40.5539 21.1331 41.4753 21.9707 42.0826 23.0387C42.6899 24.0857 42.9935 25.2584 42.9935 26.5568C42.9935 28.0226 42.5747 29.3315 41.737 30.4832C40.9203 31.635 39.7058 32.4517 38.0933 32.9333L43.182 41.6657H37.1195ZM31.2456 29.5409H34.5752C35.5594 29.5409 36.2924 29.3 36.774 28.8184C37.2766 28.3368 37.5279 27.6562 37.5279 26.7766C37.5279 25.939 37.2766 25.2794 36.774 24.7977C36.2924 24.3161 35.5594 24.0753 34.5752 24.0753H31.2456V29.5409ZM51.7367 23.9182V28.3786H58.9299V32.525H51.7367V37.3623H59.8723V41.6657H46.3653V19.6148H59.8723V23.9182H51.7367ZM68.7308 23.9182V28.3786H75.924V32.525H68.7308V37.3623H76.8664V41.6657H63.3594V19.6148H76.8664V23.9182H68.7308ZM100.08 41.6657H94.7086L85.7249 28.0645V41.6657H80.3535V19.6148H85.7249L94.7086 33.2788V19.6148H100.08V41.6657ZM118.609 41.8856C116.996 41.8856 115.551 41.6238 114.274 41.1003C112.996 40.5768 111.97 39.8019 111.195 38.7758C110.442 37.7497 110.044 36.5142 110.002 35.0693H115.719C115.802 35.886 116.085 36.5142 116.567 36.954C117.048 37.3728 117.677 37.5822 118.451 37.5822C119.247 37.5822 119.875 37.4042 120.336 37.0482C120.797 36.6713 121.027 36.1582 121.027 35.509C121.027 34.9646 120.839 34.5143 120.462 34.1584C120.106 33.8024 119.656 33.5092 119.111 33.2788C118.588 33.0485 117.834 32.7867 116.85 32.4935C115.426 32.0538 114.263 31.614 113.363 31.1743C112.462 30.7345 111.688 30.0853 111.038 29.2267C110.389 28.3682 110.065 27.2478 110.065 25.8657C110.065 23.8135 110.808 22.2115 112.295 21.0598C113.782 19.8871 115.719 19.3007 118.106 19.3007C120.535 19.3007 122.493 19.8871 123.98 21.0598C125.467 22.2115 126.262 23.824 126.367 25.8971H120.556C120.514 25.1851 120.252 24.6302 119.771 24.2323C119.289 23.8135 118.671 23.6041 117.918 23.6041C117.268 23.6041 116.745 23.7821 116.347 24.1381C115.949 24.4731 115.75 24.9653 115.75 25.6144C115.75 26.3264 116.085 26.8814 116.755 27.2792C117.425 27.6771 118.472 28.1064 119.896 28.5671C121.32 29.0487 122.472 29.5094 123.352 29.9492C124.252 30.389 125.027 31.0277 125.676 31.8653C126.325 32.703 126.65 33.7814 126.65 35.1007C126.65 36.3572 126.325 37.4984 125.676 38.5245C125.048 39.5507 124.127 40.3674 122.912 40.9746C121.697 41.5819 120.263 41.8856 118.609 41.8856ZM146.761 26.7138C146.761 27.9912 146.467 29.1639 145.881 30.2319C145.295 31.279 144.394 32.1271 143.18 32.7762C141.965 33.4254 140.457 33.75 138.656 33.75H135.327V41.6657H129.955V19.6148H138.656C140.415 19.6148 141.902 19.9185 143.117 20.5258C144.331 21.1331 145.242 21.9707 145.85 23.0387C146.457 24.1067 146.761 25.3317 146.761 26.7138ZM138.248 29.478C139.274 29.478 140.039 29.2372 140.541 28.7556C141.044 28.2739 141.295 27.5933 141.295 26.7138C141.295 25.8343 141.044 25.1537 140.541 24.6721C140.039 24.1904 139.274 23.9496 138.248 23.9496H135.327V29.478H138.248ZM159.986 41.8856C157.912 41.8856 156.007 41.4039 154.269 40.4406C152.552 39.4774 151.18 38.1371 150.154 36.42C149.149 34.6819 148.646 32.7344 148.646 30.5774C148.646 28.4205 149.149 26.4835 150.154 24.7663C151.18 23.0492 152.552 21.7089 154.269 20.7456C156.007 19.7824 157.912 19.3007 159.986 19.3007C162.059 19.3007 163.954 19.7824 165.671 20.7456C167.409 21.7089 168.77 23.0492 169.755 24.7663C170.76 26.4835 171.262 28.4205 171.262 30.5774C171.262 32.7344 170.76 34.6819 169.755 36.42C168.749 38.1371 167.388 39.4774 165.671 40.4406C163.954 41.4039 162.059 41.8856 159.986 41.8856ZM159.986 36.9854C161.745 36.9854 163.148 36.399 164.195 35.2263C165.263 34.0536 165.797 32.504 165.797 30.5774C165.797 28.6299 165.263 27.0803 164.195 25.9285C163.148 24.7558 161.745 24.1695 159.986 24.1695C158.206 24.1695 156.782 24.7454 155.714 25.8971C154.667 27.0489 154.143 28.609 154.143 30.5774C154.143 32.525 154.667 34.0851 155.714 35.2578C156.782 36.4095 158.206 36.9854 159.986 36.9854ZM184.679 41.8856C182.606 41.8856 180.7 41.4039 178.962 40.4406C177.245 39.4774 175.874 38.1371 174.847 36.42C173.842 34.6819 173.34 32.7344 173.34 30.5774C173.34 28.4205 173.842 26.4835 174.847 24.7663C175.874 23.0492 177.245 21.7089 178.962 20.7456C180.7 19.7824 182.606 19.3007 184.679 19.3007C186.752 19.3007 188.648 19.7824 190.365 20.7456C192.103 21.7089 193.464 23.0492 194.448 24.7663C195.453 26.4835 195.956 28.4205 195.956 30.5774C195.956 32.7344 195.453 34.6819 194.448 36.42C193.443 38.1371 192.082 39.4774 190.365 40.4406C188.648 41.4039 186.752 41.8856 184.679 41.8856ZM184.679 36.9854C186.438 36.9854 187.841 36.399 188.888 35.2263C189.956 34.0536 190.49 32.504 190.49 30.5774C190.49 28.6299 189.956 27.0803 188.888 25.9285C187.841 24.7558 186.438 24.1695 184.679 24.1695C182.899 24.1695 181.475 24.7454 180.407 25.8971C179.36 27.0489 178.837 28.609 178.837 30.5774C178.837 32.525 179.36 34.0851 180.407 35.2578C181.475 36.4095 182.899 36.9854 184.679 36.9854ZM218.671 41.6657H213.299L204.316 28.0645V41.6657H198.944V19.6148H204.316L213.299 33.2788V19.6148H218.671V41.6657Z" fill="#7BAE3F"/>
<path d="M0 61.0087C0 54.7441 5.07845 49.6657 11.343 49.6657H215.081C218.214 49.6657 220.753 52.2049 220.753 55.3372V55.3372C220.753 58.4695 218.214 61.0087 215.081 61.0087H0V61.0087Z" fill="#7BAE3F"/>
<path d="M235.559 34.5721C233.282 34.3521 231.231 33.3374 229.698 31.8046C224.007 26.1136 225.142 13.6245 231.955 6.81223C235.715 3.05131 241.818 3.05131 245.579 6.81223C252.391 13.6245 253.527 26.1135 247.836 31.8046C246.303 33.3374 244.252 34.3521 241.974 34.5721L241.981 68.1294C241.981 69.9034 240.541 71.3439 238.767 71.3439C236.993 71.3439 235.552 69.9034 235.552 68.1294L235.559 34.5721Z" fill="#7BAE3F"/>
</svg>
