<svg width="73" height="91" viewBox="0 0 73 91" fill="none" xmlns="http://www.w3.org/2000/svg">
<path d="M11.5606 2.34619V88.5686H6.3056C5.15365 88.5398 4.05858 88.0618 3.25414 87.2368C2.44971 86.4117 1.99964 85.3049 2 84.1526V6.65179C2.02799 5.51869 2.4906 4.43973 3.29207 3.63826C4.09354 2.83679 5.1725 2.37418 6.3056 2.34619H11.5606ZM11.5606 2.34619V88.4582H66.584C67.7552 88.4582 68.8784 87.9929 69.7066 87.1648C70.5347 86.3366 71 85.2134 71 84.0422V6.65179C70.9712 5.49983 70.4932 4.40477 69.6682 3.60034C68.8431 2.7959 67.7363 2.34583 66.584 2.34619H11.5606ZM31.5651 31.1385V21.6662M26.5971 31.5801V21.6662M36.224 31.1385V21.6662M41.2362 31.5801V21.6662" stroke="#7BAE3F" stroke-width="3.5" stroke-linecap="round" stroke-linejoin="round"/>
<path d="M41.2361 31.5801C41.1332 33.4518 40.3172 35.213 38.9559 36.5017C37.5945 37.7903 35.7911 38.5085 33.9166 38.5085C32.042 38.5085 30.2387 37.7903 28.8773 36.5017C27.5159 35.213 26.6999 33.4518 26.597 31.5801M33.9055 69.1381V39.021M55.831 69.1381V21.6661C44.791 25.7951 45.343 46.5061 55.831 51.6949" stroke="#7BAE3F" stroke-width="4" stroke-linecap="round" stroke-linejoin="round"/>
</svg>
